<?xml version="1.0" standalone="no"?>
<!DOCTYPE svg PUBLIC "-//W3C//DTD SVG 20010904//EN"
 "http://www.w3.org/TR/2001/REC-SVG-20010904/DTD/svg10.dtd">
<svg version="1.0" xmlns="http://www.w3.org/2000/svg"
 width="400.000000pt" height="400.000000pt" viewBox="0 0 400.000000 400.000000"
 preserveAspectRatio="xMidYMid meet">
<metadata>
Created by potrace 1.14, written by Peter Selinger 2001-2017
</metadata>
<g transform="translate(0.000000,400.000000) scale(0.100000,-0.100000)"
fill="#000000" stroke="none">
<path d="M125 3981 c-45 -20 -91 -69 -111 -118 -11 -25 -14 -206 -14 -931 l0
-900 306 0 c169 0 310 -4 314 -9 5 -4 11 -33 15 -63 14 -115 88 -223 188 -273
226 -115 479 25 511 282 3 25 10 49 16 55 5 5 133 10 312 10 l303 1 0 278 c0
177 -4 277 -10 278 -29 4 -116 34 -155 54 -25 13 -68 46 -96 74 -232 232 -121
628 198 707 l66 16 0 279 0 279 -901 0 c-851 -1 -904 -2 -942 -19z"/>
<path d="M2040 3698 c0 -167 -4 -308 -8 -315 -4 -6 -32 -14 -62 -18 -257 -31
-396 -307 -266 -529 53 -91 168 -163 271 -170 23 -1 47 -6 53 -10 9 -5 12 -91
12 -316 l0 -308 280 0 c154 0 280 3 281 7 19 168 139 312 301 363 233 72 480
-75 537 -318 l12 -51 275 0 274 0 -2 921 -3 921 -29 37 c-15 21 -45 48 -65 60
l-36 23 -912 3 -913 2 0 -302z"/>
<path d="M2935 2336 c-151 -47 -237 -150 -260 -312 -3 -21 -8 -45 -10 -51 -3
-10 -75 -13 -315 -13 l-310 0 0 -279 0 -279 49 -11 c256 -55 402 -320 311
-564 -22 -60 -72 -132 -118 -173 -38 -33 -130 -81 -172 -89 -77 -15 -70 14
-70 -291 l0 -274 912 0 911 0 43 25 c26 15 54 43 69 69 l25 43 0 911 0 912
-304 0 c-168 0 -307 4 -310 9 -3 5 -8 30 -11 56 -22 177 -161 311 -331 320
-38 2 -87 -2 -109 -9z"/>
<path d="M2 1053 c3 -896 3 -909 24 -947 11 -22 37 -54 58 -70 l38 -31 922 -3
923 -2 1 301 c0 171 4 305 9 310 5 5 32 12 59 16 141 17 258 108 300 235 72
218 -71 435 -306 464 -25 3 -49 9 -54 14 -4 4 -8 146 -8 314 l0 306 -281 -2
c-276 -3 -282 -3 -283 -23 -3 -65 -52 -163 -112 -227 -224 -240 -622 -145
-715 170 -17 55 -17 56 -17 72 0 6 -100 10 -280 10 l-280 0 2 -907z"/>
</g>
</svg>
